<svg width="130" height="32" viewBox="0 0 130 32" fill="none" xmlns="http://www.w3.org/2000/svg">
<g clip-path="url(#clip0)">
<path fill-rule="evenodd" clip-rule="evenodd" d="M72.22 20.2885C72.22 20.5405 72.197 20.8015 72.128 21.0285C71.841 21.9805 70.857 22.7835 69.627 22.7835C68.6 22.7835 67.786 22.2015 67.786 20.9695C67.786 19.0855 69.859 18.5635 72.22 18.5765V20.2885ZM75.924 17.0055C75.924 13.8975 74.595 11.1655 70.11 11.1655C67.808 11.1655 65.98 11.8105 64.983 12.3875L65.713 14.8845C66.624 14.3095 68.078 13.8335 69.453 13.8335C71.727 13.8275 72.101 15.1215 72.101 15.9505V16.1475C67.139 16.1395 64.005 17.8565 64.005 21.3565C64.005 23.4925 65.601 25.4945 68.378 25.4945C70.084 25.4945 71.512 24.8145 72.367 23.7235H72.452C72.452 23.7235 73.017 26.0935 76.142 25.1855C75.976 24.1995 75.924 23.1475 75.924 21.8825V17.0055ZM0 6.9325C0 6.9325 3.24 20.2135 3.757 22.3685C4.361 24.8845 5.449 25.8115 8.584 25.1855L10.608 16.9515C11.122 14.9065 11.465 13.4495 11.796 11.3685H11.854C12.085 13.4685 12.416 14.9135 12.836 16.9585C12.836 16.9585 13.661 20.6955 14.082 22.6605C14.505 24.6225 15.682 25.8585 18.755 25.1855L23.576 6.9325H19.682L18.036 14.8245C17.594 17.1205 17.193 18.9175 16.882 21.0175H16.827C16.547 18.9375 16.189 17.2135 15.738 14.9755L14.025 6.9325H9.968L8.135 14.7725C7.617 17.1555 7.129 19.0785 6.821 21.1095H6.766C6.449 19.1975 6.027 16.7795 5.571 14.4735C5.571 14.4735 4.482 8.8655 4.101 6.9325H0ZM30.712 20.2885C30.712 20.5405 30.691 20.8015 30.619 21.0285C30.334 21.9805 29.349 22.7835 28.119 22.7835C27.093 22.7835 26.278 22.2015 26.278 20.9695C26.278 19.0855 28.352 18.5635 30.712 18.5765V20.2885ZM34.415 17.0055C34.415 13.8975 33.088 11.1655 28.603 11.1655C26.301 11.1655 24.47 11.8105 23.475 12.3875L24.204 14.8845C25.117 14.3095 26.568 13.8335 27.944 13.8335C30.22 13.8275 30.593 15.1215 30.593 15.9505V16.1475C25.631 16.1395 22.498 17.8565 22.498 21.3565C22.498 23.4925 24.093 25.4945 26.867 25.4945C28.575 25.4945 30.003 24.8145 30.859 23.7235H30.943C30.943 23.7235 31.51 26.0935 34.632 25.1855C34.468 24.1995 34.415 23.1475 34.415 21.8825V17.0055ZM40.143 21.3105V6.9325H36.436V25.1855H40.143V21.3105ZM87.286 6.9325V20.3985C87.286 22.2555 87.636 23.5545 88.383 24.3485C89.038 25.0445 90.113 25.4945 91.402 25.4945C92.497 25.4945 93.575 25.2875 94.083 25.0965L94.037 22.2015C93.658 22.2935 93.223 22.3685 92.629 22.3685C91.367 22.3685 90.943 21.5595 90.943 19.8935V14.7415H94.17V11.2495H90.943V6.9325H87.286ZM77.718 11.4735V25.1855H81.542V18.1655C81.542 17.7865 81.566 17.4565 81.626 17.1535C81.908 15.6835 83.033 14.7435 84.648 14.7435C85.091 14.7435 85.408 14.7905 85.751 14.8405V11.2505C85.464 11.1925 85.267 11.1655 84.909 11.1655C83.482 11.1655 81.859 12.0855 81.179 14.0605H81.074V11.4745H77.718V11.4735ZM42.289 11.4735V25.1855H46.014V17.1435C46.014 16.7665 46.058 16.3685 46.189 16.0215C46.499 15.2125 47.251 14.2645 48.453 14.2645C49.957 14.2645 50.661 15.5365 50.661 17.3705V25.1855H54.382V17.0465C54.382 16.6865 54.432 16.2545 54.539 15.9345C54.844 15.0145 55.657 14.2645 56.775 14.2645C58.299 14.2645 59.03 15.5145 59.03 17.6725V25.1855H62.755V17.1095C62.755 12.8505 60.593 11.1645 58.151 11.1645C57.07 11.1645 56.216 11.4355 55.445 11.9085C54.796 12.3075 54.215 12.8725 53.708 13.6165H53.653C53.065 12.1395 51.68 11.1645 49.875 11.1645C47.555 11.1645 46.512 12.3395 45.881 13.3375H45.827V11.4735H42.289Z" fill="white"/>
<path fill-rule="evenodd" clip-rule="evenodd" d="M114.2 10.8595C114.936 10.8595 115.543 10.4765 115.626 9.9815L116.354 1.7475C116.354 0.933499 115.4 0.265499 114.2 0.265499C113.004 0.265499 112.051 0.933499 112.051 1.7475L112.779 9.9815C112.859 10.4765 113.467 10.8595 114.2 10.8595H114.198H114.2ZM109.75 13.4315C110.119 12.7935 110.09 12.0765 109.702 11.7585L102.934 7.0115C102.231 6.6045 101.176 7.0945 100.577 8.1325C99.9746 9.1705 100.083 10.3295 100.786 10.7355L108.278 14.2245C108.747 14.3985 109.384 14.0645 109.752 13.4275L109.749 13.4315H109.75ZM118.653 13.4275C119.022 14.0645 119.658 14.3985 120.126 14.2245L127.619 10.7355C128.326 10.3295 128.426 9.1705 127.831 8.1325C127.228 7.0945 126.173 6.6045 125.471 7.0125L118.703 11.7585C118.316 12.0765 118.288 12.7935 118.655 13.4315L118.653 13.4275ZM114.2 21.1425C114.936 21.1425 115.543 21.5245 115.626 22.0195L116.354 30.2515C116.354 31.0675 115.4 31.7345 114.201 31.7345C113.005 31.7345 112.052 31.0675 112.052 30.2515L112.78 22.0195C112.86 21.5245 113.468 21.1425 114.201 21.1425H114.199H114.2ZM118.653 18.5715C119.022 17.9325 119.658 17.6015 120.126 17.7785L127.619 21.2635C128.326 21.6715 128.426 22.8305 127.831 23.8675C127.228 24.9035 126.173 25.3945 125.471 24.9895L118.703 20.2465C118.316 19.9245 118.288 19.2085 118.655 18.5705L118.653 18.5715ZM109.75 18.5705C110.119 19.2085 110.09 19.9245 109.702 20.2465L102.934 24.9895C102.231 25.3945 101.176 24.9035 100.577 23.8675C99.9746 22.8305 100.083 21.6715 100.786 21.2635L108.278 17.7785C108.747 17.6015 109.384 17.9325 109.753 18.5715L109.749 18.5705H109.75ZM129.197 24.2725H129.27C129.354 24.2725 129.422 24.2435 129.422 24.1755C129.422 24.1155 129.378 24.0755 129.282 24.0755C129.242 24.0755 129.214 24.0805 129.197 24.0845V24.2725ZM129.193 24.6405H129.042V23.9875C129.102 23.9765 129.186 23.9645 129.294 23.9645C129.418 23.9645 129.474 23.9845 129.523 24.0155C129.558 24.0435 129.587 24.0955 129.587 24.1565C129.587 24.2315 129.53 24.2875 129.451 24.3125V24.3195C129.514 24.3395 129.551 24.3925 129.571 24.4805C129.591 24.5805 129.601 24.6205 129.618 24.6405H129.455C129.435 24.6165 129.422 24.5605 129.402 24.4845C129.39 24.4115 129.35 24.3805 129.266 24.3805H129.193V24.6405ZM129.293 23.7755C129.006 23.7755 128.789 24.0125 128.789 24.3005C128.789 24.5925 129.006 24.8245 129.302 24.8245C129.59 24.8285 129.802 24.5925 129.802 24.3005C129.802 24.0125 129.59 23.7755 129.298 23.7755H129.294H129.293ZM129.303 23.6435C129.678 23.6435 129.97 23.9355 129.97 24.3005C129.97 24.6725 129.678 24.9605 129.298 24.9605C128.922 24.9605 128.622 24.6725 128.622 24.3005C128.622 23.9355 128.922 23.6435 129.298 23.6435H129.302H129.303Z" fill="#F3B53B"/>
</g>
<defs>
<clipPath id="clip0">
<rect width="129.97" height="31.469" fill="white" transform="translate(0 0.265499)"/>
</clipPath>
</defs>
</svg>
